<svg width="23" height="18" viewBox="0 0 23 18" fill="none" xmlns="http://www.w3.org/2000/svg">
<path fill-rule="evenodd" clip-rule="evenodd" d="M11.7373 4.05805C11.3504 4.42937 10.7394 4.42937 10.3525 4.05805L9.66012 3.39359C8.84969 2.61586 7.75486 2.14099 6.54492 2.14099C4.05964 2.14099 2.04492 4.15571 2.04492 6.64099C2.04492 9.02362 3.33471 10.991 5.19668 12.6075C7.06024 14.2254 9.28832 15.2984 10.6196 15.8461C10.8979 15.9606 11.1919 15.9606 11.4703 15.8461C12.8015 15.2984 15.0296 14.2254 16.8932 12.6075C18.7551 10.991 20.0449 9.02361 20.0449 6.64099C20.0449 4.15571 18.0302 2.14099 15.5449 2.14099C14.335 2.14099 13.2402 2.61586 12.4297 3.39359L11.7373 4.05805ZM11.0449 1.95056C9.87703 0.829796 8.29141 0.140991 6.54492 0.140991C2.95507 0.140991 0.0449219 3.05114 0.0449219 6.64099C0.0449219 13.0093 7.01526 16.526 9.85871 17.6957C10.6245 18.0107 11.4654 18.0107 12.2311 17.6957C15.0746 16.526 22.0449 13.0092 22.0449 6.64099C22.0449 3.05114 19.1348 0.140991 15.5449 0.140991C13.7984 0.140991 12.2128 0.829796 11.0449 1.95056Z" fill="#FEBC11"/>
</svg>
