<svg width="18" height="18" viewBox="0 0 18 18" fill="none" xmlns="http://www.w3.org/2000/svg">
<path d="M9.53721 13.5162L12.9701 15.6908C13.4089 15.9685 13.9534 15.5553 13.8233 15.0429L12.8318 11.1418C12.8038 11.0331 12.807 10.9187 12.8411 10.8118C12.8752 10.7049 12.9388 10.6098 13.0245 10.5374L16.103 7.97567C16.507 7.63919 16.299 6.96785 15.779 6.9341L11.7592 6.67275C11.651 6.66507 11.5471 6.62681 11.4598 6.56242C11.3725 6.49803 11.3052 6.41016 11.2659 6.30904L9.76643 2.53368C9.7256 2.42639 9.65312 2.33404 9.55861 2.26888C9.46409 2.20372 9.352 2.16882 9.2372 2.16882C9.1224 2.16882 9.01031 2.20372 8.9158 2.26888C8.82128 2.33404 8.74881 2.42639 8.70798 2.53368L7.2085 6.30904C7.16925 6.41027 7.10204 6.49825 7.01471 6.56274C6.92737 6.62723 6.8235 6.66557 6.71521 6.6733L2.69538 6.93464C2.17596 6.96785 1.96688 7.63919 2.37142 7.97567L5.44986 10.538C5.53551 10.6103 5.59903 10.7053 5.63312 10.8121C5.66721 10.9189 5.6705 11.0332 5.6426 11.1418L4.72354 14.7598C4.56727 15.3745 5.22118 15.8705 5.74714 15.5367L8.93774 13.5162C9.02742 13.4592 9.13148 13.4289 9.23775 13.4289C9.34401 13.4289 9.44807 13.4592 9.53775 13.5162H9.53721Z" fill="#CCCCCC"/>
</svg>
