<svg width="22" height="22" viewBox="0 0 22 22" fill="none" xmlns="http://www.w3.org/2000/svg">
<path d="M15.1455 5.48966V6.16223M15.1455 8.85249V9.52506M15.1455 12.2153V12.8879M15.1455 15.5782V16.2507M7.07466 11.5428H11.7826M7.07466 13.5605H9.76493M3.37555 4.81709C2.81838 4.81709 2.3667 5.26877 2.3667 5.82594V8.53983C3.17082 9.00499 3.71183 9.87441 3.71183 10.8702C3.71183 11.866 3.17082 12.7354 2.3667 13.2005V15.9144C2.3667 16.4716 2.81838 16.9233 3.37555 16.9233H18.8446C19.4017 16.9233 19.8534 16.4716 19.8534 15.9144V13.2005C19.0493 12.7354 18.5083 11.866 18.5083 10.8702C18.5083 9.87441 19.0493 9.00499 19.8534 8.53983V5.82594C19.8534 5.26877 19.4017 4.81709 18.8446 4.81709H3.37555Z" stroke="#999999" stroke-width="1.34513" stroke-linecap="round" stroke-linejoin="round"/>
</svg>
