<svg width="40" height="40" viewBox="0 0 40 40" fill="none" xmlns="http://www.w3.org/2000/svg">
<path fill-rule="evenodd" clip-rule="evenodd" d="M4.88324 10.9868C4.88324 10.3126 5.42979 9.76608 6.10399 9.76608H32.9605C33.6347 9.76608 34.1812 10.3126 34.1812 10.9868C34.1812 11.661 33.6347 12.2076 32.9605 12.2076H6.10399C5.42979 12.2076 4.88324 11.661 4.88324 10.9868ZM4.88324 19.5321C4.88324 18.8579 5.42979 18.3113 6.10399 18.3113H32.9605C33.6347 18.3113 34.1812 18.8579 34.1812 19.5321C34.1812 20.2063 33.6347 20.7528 32.9605 20.7528H6.10399C5.42979 20.7528 4.88324 20.2063 4.88324 19.5321ZM4.88324 28.0773C4.88324 27.4031 5.42979 26.8566 6.10399 26.8566H32.9605C33.6347 26.8566 34.1812 27.4031 34.1812 28.0773C34.1812 28.7515 33.6347 29.2981 32.9605 29.2981H6.10399C5.42979 29.2981 4.88324 28.7515 4.88324 28.0773Z" fill="#222222"/>
</svg>
