<svg width="12" height="12" viewBox="0 0 12 12" fill="none" xmlns="http://www.w3.org/2000/svg">
<path fill-rule="evenodd" clip-rule="evenodd" d="M0.558058 0.558257C0.802136 0.314179 1.19786 0.314179 1.44194 0.558257L6 5.11631L10.5581 0.558257C10.8021 0.31418 11.1979 0.31418 11.4419 0.558257C11.686 0.802335 11.686 1.19806 11.4419 1.44214L6.88388 6.0002L11.4419 10.5583C11.686 10.8023 11.686 11.1981 11.4419 11.4421C11.1979 11.6862 10.8021 11.6862 10.5581 11.4421L6 6.88408L1.44194 11.4421C1.19786 11.6862 0.802136 11.6862 0.558058 11.4421C0.313981 11.1981 0.313981 10.8023 0.558058 10.5583L5.11612 6.0002L0.558058 1.44214C0.313981 1.19806 0.313981 0.802334 0.558058 0.558257Z" fill="#222222"/>
</svg>
