<svg width="22" height="20" viewBox="0 0 22 20" fill="none" xmlns="http://www.w3.org/2000/svg">
<path d="M1.98165 7.16437L2.22702 6.45565H2.22702L1.98165 7.16437ZM1.98165 12.8356L1.73628 12.1269V12.1269L1.98165 12.8356ZM20.0179 7.16437L19.7725 6.45565H19.7725L20.0179 7.16437ZM20.0179 12.8356L20.2632 12.1269L20.2632 12.1269L20.0179 12.8356ZM7.46943 12.4697C7.17653 12.7626 7.17653 13.2374 7.46943 13.5303C7.76232 13.8232 8.23719 13.8232 8.53009 13.5303L7.46943 12.4697ZM14.5301 7.53033C14.823 7.23744 14.823 6.76256 14.5301 6.46967C14.2372 6.17678 13.7623 6.17678 13.4694 6.46967L14.5301 7.53033ZM16.9998 1.75C18.7947 1.75 20.2498 3.20507 20.2498 5H21.7498C21.7498 2.37665 19.6231 0.25 16.9998 0.25L16.9998 1.75ZM1.74976 5C1.74976 3.20507 3.20483 1.75 4.99976 1.75V0.25C2.3764 0.25 0.249756 2.37665 0.249756 5H1.74976ZM4.99976 18.25C3.20483 18.25 1.74976 16.7949 1.74976 15L0.249756 15C0.249756 17.6234 2.3764 19.75 4.99976 19.75V18.25ZM16.9998 19.75C19.6231 19.75 21.7498 17.6234 21.7498 15H20.2498C20.2498 16.7949 18.7947 18.25 16.9998 18.25V19.75ZM1.73628 7.8731C2.61821 8.17844 3.24976 9.01644 3.24976 10H4.74976C4.74976 8.35761 3.69437 6.96367 2.22702 6.45565L1.73628 7.8731ZM3.24976 10C3.24976 10.9836 2.61821 11.8216 1.73628 12.1269L2.22702 13.5444C3.69437 13.0363 4.74976 11.6424 4.74976 10H3.24976ZM18.7498 10C18.7498 9.01644 19.3813 8.17844 20.2632 7.8731L19.7725 6.45565C18.3051 6.96367 17.2498 8.35761 17.2498 10H18.7498ZM20.2632 12.1269C19.3813 11.8216 18.7498 10.9836 18.7498 10H17.2498C17.2498 11.6424 18.3051 13.0363 19.7725 13.5444L20.2632 12.1269ZM0.249756 14V15L1.74976 15V14H0.249756ZM1.74976 6V5H0.249756V6H1.74976ZM21.7498 6V5H20.2498V6H21.7498ZM20.2498 14V15H21.7498V14H20.2498ZM4.99976 1.75L16.9998 1.75L16.9998 0.25L4.99976 0.25V1.75ZM4.99976 19.75L16.9998 19.75V18.25L4.99976 18.25V19.75ZM20.2632 7.8731C20.9419 7.63813 21.7498 7.00246 21.7498 6H20.2498C20.2498 6.05587 20.229 6.12917 20.148 6.21871C20.0632 6.31265 19.93 6.40111 19.7725 6.45565L20.2632 7.8731ZM1.73628 12.1269C1.0576 12.3619 0.249756 12.9975 0.249756 14H1.74976C1.74976 13.9441 1.77056 13.8708 1.85147 13.7813C1.93636 13.6873 2.0695 13.5989 2.22702 13.5444L1.73628 12.1269ZM19.7725 13.5444C19.93 13.5989 20.0632 13.6873 20.148 13.7813C20.229 13.8708 20.2498 13.9441 20.2498 14H21.7498C21.7498 12.9975 20.9419 12.3619 20.2632 12.1269L19.7725 13.5444ZM2.22702 6.45565C2.0695 6.40111 1.93636 6.31265 1.85147 6.21871C1.77056 6.12917 1.74976 6.05587 1.74976 6H0.249756C0.249756 7.00246 1.0576 7.63813 1.73628 7.8731L2.22702 6.45565ZM13.7498 13C13.7498 12.8619 13.8617 12.75 13.9998 12.75V11.25C13.0333 11.25 12.2498 12.0335 12.2498 13H13.7498ZM13.9998 12.75C14.1378 12.75 14.2498 12.8619 14.2498 13H15.7498C15.7498 12.0335 14.9663 11.25 13.9998 11.25V12.75ZM14.2498 13C14.2498 13.1381 14.1378 13.25 13.9998 13.25V14.75C14.9663 14.75 15.7498 13.9665 15.7498 13H14.2498ZM13.9998 13.25C13.8617 13.25 13.7498 13.1381 13.7498 13H12.2498C12.2498 13.9665 13.0333 14.75 13.9998 14.75V13.25ZM7.74976 7C7.74976 6.86193 7.86168 6.75 7.99976 6.75V5.25C7.03326 5.25 6.24976 6.0335 6.24976 7H7.74976ZM7.99976 6.75C8.13783 6.75 8.24976 6.86193 8.24976 7H9.74976C9.74976 6.0335 8.96625 5.25 7.99976 5.25V6.75ZM8.24976 7C8.24976 7.13807 8.13783 7.25 7.99976 7.25V8.75C8.96625 8.75 9.74976 7.9665 9.74976 7H8.24976ZM7.99976 7.25C7.86168 7.25 7.74976 7.13807 7.74976 7H6.24976C6.24976 7.9665 7.03326 8.75 7.99976 8.75V7.25ZM8.53009 13.5303L14.5301 7.53033L13.4694 6.46967L7.46943 12.4697L8.53009 13.5303Z" fill="black"/>
</svg>
