<svg width="19" height="18" viewBox="0 0 19 18" fill="none" xmlns="http://www.w3.org/2000/svg">
<path d="M10.1996 15.1364L14.5085 17.8659C15.0593 18.2144 15.7427 17.6957 15.5794 17.0527L14.3349 12.1561C14.2997 12.0197 14.3038 11.8761 14.3466 11.742C14.3894 11.6078 14.4692 11.4884 14.5768 11.3975L18.4408 8.18211C18.9479 7.75977 18.6868 6.91713 18.0342 6.87476L12.9886 6.54673C12.8528 6.53709 12.7224 6.48907 12.6128 6.40825C12.5032 6.32743 12.4188 6.21714 12.3694 6.09022L10.4874 1.35151C10.4361 1.21684 10.3451 1.10093 10.2265 1.01914C10.1079 0.937352 9.96718 0.893555 9.82309 0.893555C9.67899 0.893555 9.5383 0.937352 9.41967 1.01914C9.30104 1.10093 9.21007 1.21684 9.15882 1.35151L7.27673 6.09022C7.22747 6.21727 7.14311 6.3277 7.03349 6.40865C6.92386 6.48959 6.79349 6.53772 6.65757 6.54741L1.61202 6.87544C0.960054 6.91713 0.697628 7.75977 1.2054 8.18211L5.06935 11.3982C5.17685 11.489 5.25658 11.6083 5.29937 11.7423C5.34216 11.8764 5.34629 12.0198 5.31127 12.1561L4.15769 16.6973C3.96155 17.4688 4.78232 18.0914 5.44248 17.6725L9.44722 15.1364C9.55977 15.0648 9.69039 15.0268 9.82377 15.0268C9.95715 15.0268 10.0878 15.0648 10.2003 15.1364H10.1996Z" fill="#E39217"/>
</svg>
