<svg width="90" height="17" viewBox="0 0 90 17" fill="none" xmlns="http://www.w3.org/2000/svg">
<path d="M81.3722 1.51629C81.5457 1.09899 82.1369 1.09899 82.3104 1.51629L83.8724 5.27177C83.9456 5.44769 84.111 5.5679 84.301 5.58312L88.3553 5.90816C88.8058 5.94427 88.9885 6.50649 88.6453 6.80052L85.5563 9.44657C85.4116 9.57052 85.3484 9.76501 85.3926 9.95034L86.3363 13.9067C86.4412 14.3463 85.9629 14.6938 85.5772 14.4582L82.1062 12.3381C81.9436 12.2388 81.7391 12.2388 81.5765 12.3381L78.1054 14.4582C77.7197 14.6938 77.2414 14.3463 77.3463 13.9067L78.29 9.95034C78.3342 9.76501 78.271 9.57052 78.1263 9.44657L75.0373 6.80052C74.6941 6.50649 74.8768 5.94427 75.3273 5.90816L79.3816 5.58312C79.5716 5.5679 79.737 5.44769 79.8102 5.27177L81.3722 1.51629Z" fill="#121212"/>
<path d="M63.0804 1.51629C63.254 1.09899 63.8451 1.09899 64.0187 1.51629L65.5807 5.27177C65.6539 5.44769 65.8193 5.5679 66.0092 5.58312L70.0636 5.90816C70.5141 5.94427 70.6968 6.50649 70.3535 6.80052L67.2645 9.44657C67.1198 9.57052 67.0566 9.76501 67.1008 9.95034L68.0446 13.9067C68.1494 14.3463 67.6712 14.6938 67.2855 14.4582L63.8144 12.3381C63.6518 12.2388 63.4473 12.2388 63.2847 12.3381L59.8136 14.4582C59.4279 14.6938 58.9497 14.3463 59.0545 13.9067L59.9983 9.95034C60.0425 9.76501 59.9793 9.57052 59.8346 9.44657L56.7456 6.80052C56.4023 6.50649 56.585 5.94427 57.0355 5.90816L61.0899 5.58312C61.2798 5.5679 61.4453 5.44769 61.5184 5.27177L63.0804 1.51629Z" fill="#FEBC11"/>
<path d="M44.7888 1.51629C44.9624 1.09899 45.5535 1.09899 45.7271 1.51629L47.2891 5.27177C47.3622 5.44769 47.5277 5.5679 47.7176 5.58312L51.772 5.90816C52.2225 5.94427 52.4051 6.50649 52.0619 6.80052L48.9729 9.44657C48.8282 9.57052 48.765 9.76501 48.8092 9.95034L49.753 13.9067C49.8578 14.3463 49.3796 14.6938 48.9939 14.4582L45.5228 12.3381C45.3602 12.2388 45.1557 12.2388 44.9931 12.3381L41.522 14.4582C41.1363 14.6938 40.658 14.3463 40.7629 13.9067L41.7066 9.95034C41.7508 9.76501 41.6877 9.57052 41.543 9.44657L38.454 6.80052C38.1107 6.50649 38.2934 5.94427 38.7439 5.90816L42.7983 5.58312C42.9882 5.5679 43.1536 5.44769 43.2268 5.27177L44.7888 1.51629Z" fill="#FEBC11"/>
<path d="M26.497 1.51629C26.6706 1.09899 27.2618 1.09899 27.4353 1.51629L28.9973 5.27177C29.0705 5.44769 29.2359 5.5679 29.4258 5.58312L33.4802 5.90816C33.9307 5.94427 34.1134 6.50649 33.7701 6.80052L30.6812 9.44657C30.5365 9.57052 30.4733 9.76501 30.5175 9.95034L31.4612 13.9067C31.5661 14.3463 31.0878 14.6938 30.7021 14.4582L27.231 12.3381C27.0684 12.2388 26.8639 12.2388 26.7013 12.3381L23.2302 14.4582C22.8445 14.6938 22.3663 14.3463 22.4712 13.9067L23.4149 9.95034C23.4591 9.76501 23.3959 9.57052 23.2512 9.44657L20.1622 6.80052C19.819 6.50649 20.0016 5.94427 20.4522 5.90816L24.5065 5.58312C24.6964 5.5679 24.8619 5.44769 24.935 5.27177L26.497 1.51629Z" fill="#FEBC11"/>
<path d="M8.20541 1.51629C8.37898 1.09899 8.97013 1.09899 9.14369 1.51629L10.7057 5.27177C10.7789 5.44769 10.9443 5.5679 11.1342 5.58312L15.1886 5.90816C15.6391 5.94427 15.8218 6.50649 15.4785 6.80052L12.3895 9.44657C12.2448 9.57052 12.1816 9.76501 12.2258 9.95034L13.1696 13.9067C13.2744 14.3463 12.7962 14.6938 12.4105 14.4582L8.9394 12.3381C8.7768 12.2388 8.5723 12.2388 8.4097 12.3381L4.93861 14.4582C4.55291 14.6938 4.07466 14.3463 4.17953 13.9067L5.12326 9.95034C5.16747 9.76501 5.10428 9.57052 4.95958 9.44657L1.87059 6.80052C1.52734 6.50649 1.71002 5.94427 2.16053 5.90816L6.21488 5.58312C6.40481 5.5679 6.57025 5.44769 6.64342 5.27177L8.20541 1.51629Z" fill="#FEBC11"/>
</svg>
