<svg width="110" height="21" viewBox="0 0 110 21" fill="none" xmlns="http://www.w3.org/2000/svg">
<path d="M98.5578 1.97193C98.7685 1.46073 99.4926 1.46073 99.7033 1.97193L101.608 6.59133C101.697 6.80661 101.899 6.95394 102.131 6.97271L107.084 7.3733C107.632 7.4176 107.855 8.10029 107.439 8.45964L103.657 11.7276C103.483 11.8786 103.406 12.1142 103.46 12.339L104.614 17.2193C104.741 17.7562 104.155 18.1787 103.686 17.8893L99.4556 15.283C99.2563 15.1602 99.0048 15.1602 98.8056 15.283L94.5755 17.8893C94.1058 18.1787 93.5206 17.7562 93.6475 17.2193L94.8016 12.339C94.8547 12.1142 94.7784 11.8786 94.6037 11.7276L90.8219 8.45964C90.406 8.10029 90.6292 7.4176 91.177 7.3733L96.1303 6.97271C96.3624 6.95394 96.5644 6.80661 96.6532 6.59133L98.5578 1.97193Z" fill="#343839"/>
<path d="M76.2533 1.97193C76.4641 1.46073 77.1881 1.46073 77.3989 1.97193L79.3035 6.59133C79.3923 6.80661 79.5942 6.95394 79.8263 6.97271L84.7796 7.3733C85.3275 7.4176 85.5506 8.10029 85.1348 8.45964L81.353 11.7276C81.1782 11.8786 81.102 12.1142 81.1551 12.339L82.3091 17.2193C82.4361 17.7562 81.8509 18.1787 81.3812 17.8893L77.1511 15.283C76.9518 15.1602 76.7004 15.1602 76.5011 15.283L72.271 17.8893C71.8013 18.1787 71.2161 17.7562 71.3431 17.2193L72.4971 12.339C72.5502 12.1142 72.474 11.8786 72.2992 11.7276L68.5174 8.45964C68.1016 8.10029 68.3247 7.4176 68.8726 7.3733L73.8259 6.97271C74.058 6.95394 74.2599 6.80661 74.3487 6.59133L76.2533 1.97193Z" fill="#343839"/>
<path d="M53.9489 1.97193C54.1596 1.46073 54.8837 1.46073 55.0944 1.97193L56.9991 6.59133C57.0878 6.80661 57.2898 6.95394 57.5219 6.97271L62.4752 7.3733C63.023 7.4176 63.2462 8.10029 62.8303 8.45964L59.0485 11.7276C58.8738 11.8786 58.7975 12.1142 58.8507 12.339L60.0047 17.2193C60.1316 17.7562 59.5464 18.1787 59.0767 17.8893L54.8467 15.283C54.6474 15.1602 54.3959 15.1602 54.1966 15.283L49.9666 17.8893C49.4969 18.1787 48.9117 17.7562 49.0386 17.2193L50.1926 12.339C50.2458 12.1142 50.1695 11.8786 49.9948 11.7276L46.213 8.45964C45.7971 8.10029 46.0203 7.4176 46.5681 7.3733L51.5214 6.97271C51.7535 6.95394 51.9555 6.80661 52.0443 6.59133L53.9489 1.97193Z" fill="#FACC15"/>
<path d="M31.6447 1.97193C31.8555 1.46073 32.5795 1.46073 32.7903 1.97193L34.6949 6.59133C34.7837 6.80661 34.9856 6.95394 35.2177 6.97271L40.171 7.3733C40.7189 7.4176 40.942 8.10029 40.5262 8.45964L36.7444 11.7276C36.5696 11.8786 36.4934 12.1142 36.5465 12.339L37.7005 17.2193C37.8275 17.7562 37.2423 18.1787 36.7726 17.8893L32.5425 15.283C32.3432 15.1602 32.0918 15.1602 31.8925 15.283L27.6624 17.8893C27.1927 18.1787 26.6075 17.7562 26.7345 17.2193L27.8885 12.339C27.9416 12.1142 27.8654 11.8786 27.6906 11.7276L23.9088 8.45964C23.493 8.10029 23.7161 7.4176 24.264 7.3733L29.2173 6.97271C29.4494 6.95394 29.6513 6.80661 29.7401 6.59133L31.6447 1.97193Z" fill="#FACC15"/>
<path d="M9.34025 1.97193C9.55103 1.46073 10.2751 1.46073 10.4858 1.97193L12.3904 6.59133C12.4792 6.80661 12.6812 6.95394 12.9133 6.97271L17.8666 7.3733C18.4144 7.4176 18.6376 8.10029 18.2217 8.45964L14.4399 11.7276C14.2652 11.8786 14.1889 12.1142 14.2421 12.339L15.3961 17.2193C15.523 17.7562 14.9378 18.1787 14.4681 17.8893L10.238 15.283C10.0388 15.1602 9.78731 15.1602 9.58804 15.283L5.35797 17.8893C4.88829 18.1787 4.30307 17.7562 4.43002 17.2193L5.58404 12.339C5.63718 12.1142 5.56092 11.8786 5.38619 11.7276L1.60436 8.45964C1.1885 8.10029 1.41169 7.4176 1.9595 7.3733L6.9128 6.97271C7.14491 6.95394 7.34688 6.80661 7.43565 6.59133L9.34025 1.97193Z" fill="#FACC15"/>
</svg>
