<svg width="100" height="101" viewBox="0 0 100 101" fill="none" xmlns="http://www.w3.org/2000/svg">
<mask id="mask0_50_8138" style="mask-type:luminance" maskUnits="userSpaceOnUse" x="0" y="0" width="100" height="101">
<path d="M100 0.319916H0V100.32H100V0.319916Z" fill="white"/>
</mask>
<g mask="url(#mask0_50_8138)">
<path d="M80.8292 38.1689C80.5372 37.8789 80.3742 37.4849 80.3752 37.0739V27.0449C80.3702 23.1119 77.1812 19.9239 73.2482 19.9199H63.2212C62.8122 19.9199 62.4202 19.7569 62.1312 19.4679L55.0412 12.3789C52.2232 9.68395 47.7822 9.68295 44.9632 12.3769L37.8652 19.4709C37.5762 19.7579 37.1862 19.9199 36.7792 19.9199H26.7522C22.8192 19.9239 19.6302 23.1119 19.6252 27.0449V37.0739C19.6262 37.4839 19.4642 37.8769 19.1742 38.1659L12.0772 45.2579C9.30724 48.0459 9.30824 52.5479 12.0802 55.3339L19.1712 62.4209C19.4632 62.7109 19.6262 63.1059 19.6252 63.5169V73.5449C19.6302 77.4779 22.8192 80.6659 26.7522 80.6699H36.7792C37.1882 80.6699 37.5802 80.8339 37.8692 81.1229L44.9592 88.2109C47.7382 90.9939 52.2492 90.9979 55.0322 88.2189C55.0342 88.2169 55.0352 88.2149 55.0372 88.2129L62.1352 81.1189C62.4242 80.8319 62.8152 80.6699 63.2222 80.6699H73.2482C77.1812 80.6659 80.3702 77.4779 80.3752 73.5449V63.5169C80.3742 63.1059 80.5372 62.7109 80.8292 62.4209L87.9232 55.3319C90.6932 52.5439 90.6922 48.0419 87.9202 45.2559L80.8292 38.1689Z" fill="#008000"/>
<path d="M50.0002 24.2449C64.3871 24.2449 76.0501 35.9079 76.0501 50.2949C76.0501 64.6819 64.3871 76.3449 50.0002 76.3449C35.6132 76.3449 23.9502 64.6819 23.9502 50.2949C23.9502 35.9079 35.6132 24.2449 50.0002 24.2449Z" fill="#EDEBEA"/>
<path d="M41.75 50.4449L46.75 56.3199L58.625 44.3199" stroke="#008000" stroke-width="7" stroke-linecap="round" stroke-linejoin="round"/>
</g>
</svg>
