<svg width="108" height="28" viewBox="0 0 108 28" fill="none" xmlns="http://www.w3.org/2000/svg">
<path d="M17.2998 2.89913V6.12843H10.8759V27.032H6.91745V6.12843H0.458864V2.89913H17.2998ZM23.3227 5.36451C22.6051 5.36451 22.0032 5.12144 21.5171 4.63531C21.0309 4.14918 20.7879 3.54731 20.7879 2.82969C20.7879 2.11207 21.0309 1.51019 21.5171 1.02406C22.0032 0.537932 22.6051 0.294867 23.3227 0.294867C24.0172 0.294867 24.6075 0.537932 25.0936 1.02406C25.5797 1.51019 25.8228 2.11207 25.8228 2.82969C25.8228 3.54731 25.5797 4.14918 25.0936 4.63531C24.6075 5.12144 24.0172 5.36451 23.3227 5.36451ZM25.2672 7.89933V27.032H21.3087V7.89933H25.2672ZM53.625 7.58682C55.1297 7.58682 56.4723 7.89933 57.6529 8.52435C58.8567 9.14938 59.7942 10.0753 60.4655 11.3022C61.16 12.5291 61.5072 14.0107 61.5072 15.7469V27.032H57.5835V16.3372C57.5835 14.6241 57.1552 13.3162 56.2987 12.4134C55.4422 11.4874 54.2732 11.0244 52.7916 11.0244C51.3101 11.0244 50.1295 11.4874 49.2498 12.4134C48.3933 13.3162 47.965 14.6241 47.965 16.3372V27.032H44.0413V16.3372C44.0413 14.6241 43.613 13.3162 42.7565 12.4134C41.9 11.4874 40.731 11.0244 39.2494 11.0244C37.7679 11.0244 36.5873 11.4874 35.7076 12.4134C34.8511 13.3162 34.4228 14.6241 34.4228 16.3372V27.032H30.4644V7.89933H34.4228V10.0869C35.071 9.29985 35.8928 8.6864 36.8882 8.24656C37.8836 7.80673 38.9485 7.58682 40.0828 7.58682C41.6106 7.58682 42.9764 7.9109 44.1802 8.55908C45.3839 9.20725 46.3099 10.1448 46.9581 11.3717C47.5368 10.2142 48.4396 9.29984 49.6665 8.62852C50.8934 7.93405 52.2129 7.58682 53.625 7.58682ZM70.5028 10.7467C71.1741 9.8207 72.0885 9.06836 73.246 8.48963C74.4266 7.88775 75.7345 7.58682 77.1697 7.58682C78.8596 7.58682 80.3874 7.99192 81.7532 8.80214C83.119 9.61236 84.1955 10.7698 84.9825 12.2745C85.7696 13.756 86.1631 15.4575 86.1631 17.3789C86.1631 19.3002 85.7696 21.0248 84.9825 22.5527C84.1955 24.0574 83.1075 25.238 81.7185 26.0945C80.3527 26.9278 78.8365 27.3445 77.1697 27.3445C75.6882 27.3445 74.3687 27.0552 73.2112 26.4764C72.0769 25.8977 71.1741 25.1569 70.5028 24.2541V27.032H66.5443V1.33658H70.5028V10.7467ZM82.1352 17.3789C82.1352 16.0594 81.8574 14.9251 81.3018 13.976C80.7694 13.0037 80.0518 12.2745 79.149 11.7884C78.2693 11.2791 77.3202 11.0244 76.3016 11.0244C75.3062 11.0244 74.3571 11.2791 73.4543 11.7884C72.5746 12.2976 71.857 13.0384 71.3014 14.0107C70.769 14.9829 70.5028 16.1288 70.5028 17.4483C70.5028 18.7678 70.769 19.9253 71.3014 20.9207C71.857 21.8929 72.5746 22.6337 73.4543 23.143C74.3571 23.6523 75.3062 23.9069 76.3016 23.9069C77.3202 23.9069 78.2693 23.6523 79.149 23.143C80.0518 22.6105 80.7694 21.8466 81.3018 20.8512C81.8574 19.8558 82.1352 18.6984 82.1352 17.3789ZM107.405 7.89933V27.032H103.446V24.775C102.821 25.562 101.999 26.1871 100.981 26.6501C99.9855 27.0899 98.9206 27.3098 97.7863 27.3098C96.2816 27.3098 94.9274 26.9973 93.7236 26.3723C92.543 25.7472 91.6055 24.8213 90.911 23.5944C90.2397 22.3675 89.9041 20.8859 89.9041 19.1498V7.89933H93.8278V18.5595C93.8278 20.2725 94.2561 21.592 95.1126 22.5179C95.9691 23.4208 97.1381 23.8722 98.6197 23.8722C100.101 23.8722 101.27 23.4208 102.127 22.5179C103.006 21.592 103.446 20.2725 103.446 18.5595V7.89933H107.405Z" fill="black"/>
</svg>
